<?xml version="1.0" standalone="no"?>
<!DOCTYPE svg PUBLIC "-//W3C//DTD SVG 20010904//EN"
 "http://www.w3.org/TR/2001/REC-SVG-20010904/DTD/svg10.dtd">
<svg version="1.0" xmlns="http://www.w3.org/2000/svg"
 width="500.000000pt" height="500.000000pt" viewBox="0 0 500.000000 500.000000"
 preserveAspectRatio="xMidYMid meet">
<metadata>
Created by potrace 1.14, written by Peter Selinger 2001-2017
</metadata>
<g transform="translate(0.000000,500.000000) scale(0.100000,-0.100000)"
fill="#000000" stroke="none">
<path d="M0 2500 l0 -2500 2500 0 2500 0 0 2500 0 2500 -2500 0 -2500 0 0
-2500z m2782 2114 c848 -110 1551 -717 1783 -1543 86 -307 99 -671 34 -996
-173 -866 -875 -1536 -1764 -1682 -84 -14 -164 -18 -340 -18 -244 1 -314 9
-519 61 -755 190 -1351 785 -1541 1539 -92 361 -86 760 15 1111 234 812 931
1415 1765 1527 151 20 414 21 567 1z"/>
<path d="M2300 4349 c-555 -63 -1056 -373 -1362 -844 -155 -238 -258 -535
-288 -824 -34 -342 32 -696 187 -1006 290 -577 835 -954 1485 -1024 449 -49
928 85 1306 365 117 88 307 284 395 407 252 357 376 806 339 1224 -42 462
-221 845 -546 1168 -229 227 -468 371 -771 463 -237 72 -506 98 -745 71z m542
-198 c259 -56 489 -162 698 -321 96 -73 268 -253 343 -357 150 -211 255 -475
293 -743 22 -150 14 -410 -15 -555 -131 -639 -609 -1143 -1236 -1304 -303 -78
-650 -67 -946 30 -365 120 -702 384 -906 709 -105 168 -184 371 -226 574 -32
160 -32 470 1 632 69 344 234 648 478 884 148 143 261 223 431 308 157 78 312
128 490 157 133 21 467 14 595 -14z"/>
<path d="M3642 3594 c-71 -31 -186 -36 -1007 -43 -826 -7 -830 -8 -900 -30
-169 -55 -293 -158 -364 -302 -55 -111 -83 -226 -79 -320 3 -67 5 -74 25 -77
17 -3 26 7 46 51 85 185 207 304 366 356 64 21 287 49 298 37 19 -19 -70 -574
-132 -818 -85 -337 -181 -545 -334 -728 -81 -96 -106 -146 -97 -193 9 -48 44
-96 86 -118 45 -25 132 -24 185 0 84 38 172 171 228 342 81 247 189 815 269
1419 l13 95 339 3 c319 2 338 1 333 -15 -213 -721 -270 -990 -270 -1268 0
-181 15 -269 63 -373 44 -94 92 -147 168 -184 64 -31 72 -33 182 -33 95 0 127
4 183 24 132 45 270 158 361 295 50 76 116 217 116 250 0 47 -30 45 -69 -5
-116 -144 -199 -206 -311 -235 -77 -19 -150 -14 -206 14 -107 55 -151 173
-161 432 -11 307 36 749 110 1035 l13 50 195 6 c276 9 286 13 360 164 58 119
73 186 43 184 -11 0 -34 -7 -52 -15z"/>
</g>
</svg>
