<?xml version="1.0" standalone="no"?>
<!DOCTYPE svg PUBLIC "-//W3C//DTD SVG 20010904//EN"
 "http://www.w3.org/TR/2001/REC-SVG-20010904/DTD/svg10.dtd">
<svg version="1.0" xmlns="http://www.w3.org/2000/svg"
 width="800.000000pt" height="800.000000pt" viewBox="0 0 800.000000 800.000000"
 preserveAspectRatio="xMidYMid meet">
<metadata>
Created by potrace 1.14, written by Peter Selinger 2001-2017
</metadata>
<g transform="translate(0.000000,800.000000) scale(0.100000,-0.100000)"
fill="#000000" stroke="none">
<path d="M3168 7589 c-27 -4 -78 -17 -114 -29 -36 -12 -92 -24 -123 -25 -79
-4 -155 -41 -213 -103 -58 -62 -64 -89 -16 -69 26 11 32 19 33 42 0 25 8 34
50 57 28 15 65 28 83 28 23 0 31 4 26 12 -4 7 -3 8 4 4 7 -4 12 -9 12 -10 0
-7 -70 -77 -76 -75 -9 2 -54 -40 -54 -50 0 -6 7 -14 16 -19 14 -8 15 -15 6
-43 -6 -19 -13 -56 -15 -84 -1 -27 -9 -60 -16 -73 -12 -22 -23 -167 -13 -177
10 -9 11 -58 2 -74 -7 -13 -10 -11 -19 12 -6 16 -11 34 -11 42 0 8 -4 16 -9
19 -4 3 -11 28 -15 56 -4 28 -10 48 -15 46 -14 -9 -32 38 -27 72 3 30 -12 82
-24 82 -8 0 -2 -152 8 -195 6 -22 10 -32 11 -22 2 28 19 19 30 -15 20 -68 32
-148 21 -148 -3 0 -17 29 -29 65 -13 36 -25 65 -27 65 -10 0 3 -134 14 -138
14 -4 -9 -32 -27 -32 -14 0 -14 -17 -1 -25 15 -9 2 -25 -20 -25 -29 0 -15 -23
28 -43 77 -37 107 -57 114 -78 10 -27 3 -36 -16 -20 -21 18 -37 4 -30 -25 6
-22 4 -24 -17 -16 -13 5 -39 9 -57 8 -17 0 -32 2 -32 7 0 4 -9 7 -20 7 -11 0
-20 -6 -20 -14 0 -8 -6 -16 -12 -19 -9 -3 -7 -10 7 -21 15 -12 17 -18 8 -24
-9 -5 -3 -14 20 -27 25 -15 28 -20 14 -23 -12 -2 -16 -10 -12 -25 4 -19 -4
-26 -52 -49 -53 -25 -59 -26 -65 -10 -4 9 -7 11 -7 5 -1 -7 -9 -13 -20 -13
-11 0 -21 -9 -25 -22 -5 -19 -8 -20 -15 -8 -5 8 -8 17 -5 21 2 4 -5 5 -15 2
-16 -4 -23 3 -36 33 -8 20 -18 34 -21 31 -3 -3 1 -20 10 -38 9 -18 16 -38 16
-46 0 -7 9 -13 20 -13 22 0 27 -16 8 -23 -7 -2 -10 -7 -7 -11 3 -3 19 0 35 9
16 8 43 15 59 15 l30 -1 -27 -22 c-16 -13 -28 -27 -28 -33 0 -6 -11 -17 -25
-24 -21 -11 -27 -11 -42 2 -12 11 -31 15 -57 12 -35 -4 -43 -1 -69 28 l-29 33
23 -45 c13 -25 28 -48 34 -52 5 -4 1 -10 -10 -14 -44 -17 -93 -71 -105 -114
-5 -19 -24 -51 -42 -70 -66 -72 -100 -172 -63 -186 8 -4 15 -13 15 -21 0 -9 8
-22 18 -29 15 -12 14 -13 -11 -14 -20 0 -30 -7 -37 -26 -13 -34 -13 -44 4 -44
21 0 43 -30 28 -39 -16 -10 -4 -41 15 -41 13 0 15 -9 9 -46 l-6 -47 35 6 c40
7 44 -4 14 -34 l-21 -21 21 -19 c11 -11 18 -26 15 -34 -4 -9 0 -15 10 -15 12
0 14 -7 10 -30 -4 -18 -2 -30 4 -30 6 0 15 -19 19 -42 6 -30 15 -46 31 -53 15
-6 20 -15 16 -27 -6 -19 39 -68 63 -68 9 0 12 -7 7 -25 -4 -15 -2 -25 5 -25 7
0 10 58 10 183 0 249 28 488 64 534 5 7 6 20 3 29 -3 8 1 25 9 37 8 12 15 29
15 39 0 10 5 18 11 18 13 0 21 9 84 86 125 152 221 257 279 304 35 27 68 50
73 50 5 0 20 11 33 25 12 13 27 22 32 19 6 -4 26 1 46 9 64 27 76 30 104 28
15 -1 33 1 40 6 7 4 38 6 69 4 37 -2 67 3 87 13 20 10 42 14 63 9 23 -4 30 -3
25 5 -9 14 71 17 93 3 7 -5 26 -5 41 -1 14 4 51 3 81 -2 30 -5 87 -11 126 -14
40 -2 92 -10 115 -18 24 -8 83 -17 133 -20 55 -4 98 -13 113 -22 13 -9 37 -14
53 -12 22 4 29 0 34 -19 6 -24 24 -30 42 -12 7 7 12 3 17 -15 3 -14 13 -26 21
-26 8 0 15 -4 15 -10 0 -5 14 -10 31 -10 19 0 28 -4 23 -11 -4 -8 1 -9 15 -4
18 6 34 -5 89 -63 37 -38 73 -67 80 -65 7 3 10 -1 7 -9 -4 -11 3 -15 27 -15
18 0 36 5 40 11 5 7 8 4 8 -7 0 -10 5 -15 10 -12 6 3 10 1 10 -5 0 -6 4 -8 10
-5 10 6 70 -80 70 -102 0 -7 5 -12 12 -11 6 2 14 -6 16 -17 2 -11 7 -22 11
-25 14 -11 42 -62 37 -67 -3 -3 3 -18 13 -32 22 -32 91 -172 91 -186 0 -6 10
-21 23 -35 12 -14 34 -50 49 -80 14 -30 38 -70 52 -89 14 -19 26 -41 26 -48 0
-7 4 -13 8 -13 10 0 38 -78 31 -84 -10 -10 -142 -16 -330 -15 -215 0 -306 7
-301 24 5 17 75 37 145 40 82 4 93 10 37 20 -38 6 -40 8 -23 22 16 13 14 14
-24 10 -44 -5 -62 9 -20 15 16 2 21 9 19 26 -4 26 1 28 21 8 9 -9 19 -11 28
-6 20 13 -45 38 -110 43 -28 2 -59 12 -69 21 -21 18 -48 21 -57 6 -3 -5 -16
-10 -28 -10 -13 0 -40 -9 -62 -20 -26 -13 -42 -16 -50 -10 -7 5 -14 7 -18 4
-3 -3 -29 -7 -59 -9 -29 -2 -71 -10 -93 -18 -22 -9 -58 -18 -79 -22 -22 -4
-66 -20 -98 -36 -32 -16 -58 -27 -58 -24 0 23 -136 -105 -146 -137 -3 -10 -14
-18 -24 -18 -14 0 -18 5 -13 18 6 15 5 15 -10 4 -9 -8 -16 -17 -15 -20 2 -22
-3 -42 -11 -38 -16 11 -18 -42 -2 -60 15 -15 14 -16 -9 -11 -14 3 -35 9 -47
12 -20 6 -23 4 -23 -19 0 -16 -4 -25 -10 -21 -6 4 -9 -3 -7 -16 2 -20 -6 -25
-63 -41 -66 -18 -230 -25 -230 -10 0 4 -19 9 -42 11 -24 1 -81 9 -128 18 -50
9 -168 17 -285 20 -177 4 -212 2 -305 -16 -58 -12 -143 -37 -190 -55 -47 -19
-106 -42 -132 -51 -58 -20 -58 -18 -23 -172 4 -16 13 -23 29 -23 35 0 58 -34
101 -152 66 -177 102 -246 144 -273 65 -44 163 -58 356 -52 171 6 273 23 373
63 40 16 102 83 102 110 0 7 13 34 29 61 106 178 118 207 84 201 -21 -4 -27
21 -18 68 9 48 55 77 112 71 24 -3 50 -10 59 -18 9 -7 35 -51 59 -98 24 -48
68 -119 99 -160 31 -41 56 -78 56 -82 0 -20 59 -73 109 -99 31 -15 67 -40 80
-54 14 -14 28 -26 33 -26 16 0 7 29 -15 47 -13 10 -26 25 -29 35 -6 14 5 17
75 23 168 13 314 44 465 99 94 34 121 48 154 83 36 38 47 89 57 273 5 85 12
163 16 172 17 43 168 69 360 62 132 -4 117 3 179 -83 16 -23 31 -39 34 -37 2
3 13 -5 24 -16 15 -15 17 -23 9 -31 -8 -8 -11 -7 -11 3 0 7 -3 10 -6 7 -4 -4
1 -18 10 -32 23 -34 45 -19 38 26 -3 19 -1 29 5 26 6 -4 10 11 11 34 3 73 26
78 84 18 l39 -40 45 26 c55 32 90 30 118 -8 23 -31 26 -88 11 -202 -7 -56 -5
-66 35 -160 44 -104 60 -131 60 -102 0 9 5 17 11 17 8 0 8 4 0 14 -9 11 -8 15
5 20 12 5 14 9 5 20 -12 14 -5 46 10 46 5 0 9 6 9 14 0 7 7 26 15 42 10 20 11
32 3 41 -7 9 -6 20 7 39 10 16 14 32 9 42 -4 9 -8 22 -9 27 0 6 -5 16 -10 24
-5 10 -4 16 3 19 7 2 9 9 5 15 -10 17 -11 47 -1 47 12 0 10 34 -4 48 -9 9 -9
12 0 12 12 0 11 64 -1 76 -12 13 -7 24 8 18 11 -5 12 0 5 25 -5 17 -5 31 0 31
9 0 7 41 -4 58 -3 5 -1 12 6 14 8 3 7 11 -5 28 -20 29 -22 41 -4 37 16 -3 11
55 -8 94 -10 19 -13 42 -9 68 6 36 8 39 26 30 18 -10 19 -8 13 34 -5 32 -2 53
9 76 9 17 16 33 16 36 0 3 0 29 0 58 1 48 2 51 16 32 14 -18 15 -15 12 41 -1
33 4 75 11 93 12 27 12 36 0 57 -11 21 -11 27 1 34 11 7 10 11 -3 25 -10 9
-17 31 -17 48 0 25 3 28 10 17 7 -11 8 -5 4 20 -8 41 -42 126 -90 223 -18 37
-31 67 -28 67 2 0 -2 10 -11 23 -8 13 -17 48 -20 78 -7 65 -38 159 -70 215
-33 56 -132 151 -197 189 -29 17 -57 41 -63 54 -6 14 -38 36 -85 58 -48 23
-93 55 -126 88 -28 28 -57 52 -65 53 -8 0 -47 10 -87 20 -41 11 -128 24 -195
27 -132 8 -153 16 -291 99 -60 36 -82 44 -71 26 9 -15 0 -13 -57 15 -28 13
-67 27 -87 31 -59 10 -101 24 -198 69 -110 52 -153 66 -104 35 18 -11 31 -23
29 -26 -7 -6 -101 35 -108 47 -4 5 -74 11 -156 14 -83 2 -157 7 -166 10 -9 4
-19 2 -23 -4 -11 -18 -140 -14 -156 5 -8 10 -23 14 -43 11 -33 -5 -106 11
-106 23 0 13 -33 16 -82 9z m86 -34 c24 -18 27 -16 -62 -44 -64 -20 -76 -21
-102 -9 -34 15 -36 20 -16 37 37 31 148 40 180 16z m-314 -45 c0 -5 -4 -10
-10 -10 -5 0 -10 5 -10 10 0 6 5 10 10 10 6 0 10 -4 10 -10z m425 -36 c15 -15
20 -15 53 -1 39 16 82 20 82 9 0 -9 -54 -42 -69 -42 -6 0 -36 -16 -66 -36 -52
-35 -136 -128 -184 -207 -12 -20 -31 -42 -42 -48 -11 -5 -25 -24 -33 -42 -12
-28 -15 -30 -21 -13 -6 13 -3 23 8 31 10 7 17 24 17 39 0 15 10 37 23 50 22
22 77 101 77 110 0 3 -7 3 -15 0 -17 -7 -21 11 -5 21 6 4 8 10 5 15 -8 13 21
31 39 24 9 -3 16 -10 16 -15 0 -20 36 -6 58 22 20 24 21 28 5 22 -10 -4 -23
-13 -28 -20 -9 -11 -13 -11 -29 0 -18 13 -17 14 13 20 34 7 42 23 14 29 -13 3
-7 10 22 26 22 11 41 21 42 22 1 0 9 -7 18 -16z m-95 -3 c0 -9 -41 -23 -48
-16 -2 2 -1 8 3 14 8 13 45 15 45 2z m-220 -11 c12 -8 9 -15 -20 -45 -18 -19
-29 -35 -22 -35 6 0 18 11 27 23 16 25 81 51 90 37 3 -5 1 -11 -5 -15 -15 -9
-12 -25 5 -25 8 0 15 5 15 10 0 6 5 10 11 10 6 0 17 7 25 15 9 8 20 15 25 15
14 0 24 -31 13 -39 -5 -3 -21 -24 -36 -46 -15 -22 -42 -60 -59 -85 -18 -25
-44 -73 -60 -106 -15 -34 -32 -65 -38 -68 -5 -4 -8 -13 -4 -21 3 -9 -1 -15
-11 -15 -9 0 -16 7 -16 15 0 8 4 15 9 15 5 0 12 24 16 53 9 54 13 127 8 127
-10 0 -33 -66 -33 -96 0 -39 -19 -105 -33 -115 -4 -3 -12 -33 -18 -68 -6 -34
-13 -61 -14 -59 -9 9 -33 93 -29 100 3 4 -1 8 -9 8 -8 0 -17 -14 -21 -31 -7
-37 -26 -29 -26 11 0 22 7 31 29 41 24 11 28 18 27 48 -1 26 -5 35 -16 33 -8
-2 -16 -7 -18 -11 -7 -19 -31 -46 -36 -40 -3 3 -8 38 -10 79 -5 77 18 173 47
195 7 6 16 18 20 27 16 43 129 82 167 58z m1019 1 c7 -5 9 -11 4 -14 -6 -4
-19 0 -29 8 -15 11 -16 14 -4 15 8 0 21 -4 29 -9z m-561 -63 c-3 -7 -15 -15
-28 -16 -21 -3 -22 -2 -11 12 16 19 44 21 39 4z m202 -12 c0 -2 -9 -6 -20 -9
-11 -3 -18 -1 -14 4 5 9 34 13 34 5z m100 -25 c0 -12 -39 -21 -45 -11 -3 5 3
11 12 13 29 8 33 7 33 -2z m-490 -56 c-7 -9 -15 -13 -17 -11 -7 7 7 26 19 26
6 0 6 -6 -2 -15z m260 5 c0 -6 -8 -14 -17 -17 -10 -4 -22 -12 -28 -19 -5 -7
-25 -15 -43 -19 l-33 -7 23 24 c39 42 98 64 98 38z m-210 -50 c-20 -28 -50
-41 -50 -21 0 11 49 51 62 51 5 0 0 -13 -12 -30z m170 -34 c0 -11 -19 -15 -25
-6 -3 5 1 10 9 10 9 0 16 -2 16 -4z m-740 -112 c0 -17 -22 -14 -28 4 -2 7 3
12 12 12 9 0 16 -7 16 -16z m-5 -53 c3 -5 1 -12 -5 -16 -5 -3 -10 1 -10 9 0
18 6 21 15 7z m2520 -71 c3 -6 -1 -7 -9 -4 -18 7 -21 14 -7 14 6 0 13 -4 16
-10z m-2425 -25 c0 -12 -24 -55 -31 -55 -11 0 -22 38 -14 50 6 10 45 15 45 5z
m0 -91 c0 -8 -5 -12 -10 -9 -6 4 -8 11 -5 16 9 14 15 11 15 -7z m-10 -50 c0
-8 -4 -12 -10 -9 -5 3 -10 10 -10 16 0 5 5 9 10 9 6 0 10 -7 10 -16z m2672
-124 c10 -10 14 -21 10 -24 -4 -2 -15 7 -25 20 -21 29 -9 32 15 4z m71 -83 c6
-22 6 -22 -14 2 -22 27 -26 49 -5 32 8 -6 16 -22 19 -34z m25 -57 c7 -11 9
-20 4 -20 -4 0 -13 9 -20 20 -7 11 -9 20 -4 20 4 0 13 -9 20 -20z m-3013 -20
c3 -5 2 -10 -4 -10 -5 0 -13 5 -16 10 -3 6 -2 10 4 10 5 0 13 -4 16 -10z
m-377 -380 c-7 -11 -17 -20 -22 -20 -5 0 -1 9 9 20 10 11 20 20 22 20 2 0 -2
-9 -9 -20z m162 -160 c0 -5 -4 -10 -10 -10 -5 0 -10 5 -10 10 0 6 5 10 10 10
6 0 10 -4 10 -10z m1880 -481 c0 -5 -7 -9 -15 -9 -8 0 -15 7 -15 15 0 9 6 12
15 9 8 -4 15 -10 15 -15z m220 1 c0 -5 -2 -10 -4 -10 -3 0 -8 5 -11 10 -3 6
-1 10 4 10 6 0 11 -4 11 -10z m-266 -130 c12 0 27 5 34 12 9 9 12 9 12 0 0 -7
16 -12 42 -12 81 0 23 -20 -133 -45 -136 -23 -296 -59 -369 -85 -14 -4 -38
-11 -55 -14 -29 -6 -29 -5 7 13 38 19 254 91 276 91 6 0 12 4 12 9 0 4 27 14
60 21 40 8 60 18 60 27 0 12 3 12 16 -1 8 -9 25 -16 38 -16z m1009 -59 c13 -5
41 -25 62 -45 l38 -36 -30 0 c-28 0 -64 -21 -113 -67 -28 -27 -40 -29 -40 -8
0 8 -4 15 -8 15 -9 0 -10 5 -16 60 -2 17 -5 33 -6 38 -1 4 -2 10 -1 15 0 4 -5
7 -13 7 -8 0 -16 7 -20 15 -4 12 6 15 59 15 35 0 75 -4 88 -9z m-818 -67 c60
-39 97 -185 99 -389 1 -110 -2 -136 -18 -169 -33 -65 -124 -112 -316 -163 -77
-21 -120 -26 -231 -27 -134 -1 -136 -1 -185 29 -88 55 -210 261 -229 387 -9
57 16 119 59 152 84 64 347 162 509 191 108 19 275 13 312 -11z m-705 -28 c0
-3 -4 -8 -10 -11 -5 -3 -10 -1 -10 4 0 6 5 11 10 11 6 0 10 -2 10 -4z m-185
-76 c3 -5 1 -10 -4 -10 -6 0 -11 5 -11 10 0 6 2 10 4 10 3 0 8 -4 11 -10z
m-755 -90 c130 -14 319 -50 353 -67 42 -21 59 -73 65 -191 5 -121 -13 -215
-60 -304 -26 -48 -39 -62 -82 -83 -95 -46 -176 -59 -361 -59 -182 -1 -233 8
-297 49 -70 46 -142 252 -154 444 -7 94 -6 97 19 127 61 72 283 108 517 84z"/>
<path d="M2938 7319 c-34 -35 -67 -113 -54 -126 6 -7 66 86 66 103 0 6 9 23
21 38 31 40 9 30 -33 -15z"/>
<path d="M3066 7343 c-6 -14 -5 -15 5 -6 7 7 10 15 7 18 -3 3 -9 -2 -12 -12z"/>
<path d="M4333 5126 c25 -20 8 -26 -39 -16 -21 5 -54 10 -73 10 -36 0 -155
-32 -208 -56 -17 -8 -34 -14 -37 -14 -14 0 -4 23 17 42 l22 19 -34 -18 c-39
-21 -111 -124 -111 -160 0 -19 3 -22 18 -15 9 6 50 15 91 22 l74 12 -31 14
c-37 15 -38 21 -13 51 29 34 40 31 65 -17 l23 -45 97 2 c53 1 103 6 110 12 7
6 15 9 18 6 2 -3 39 -1 82 5 124 16 141 56 36 87 -33 10 -60 22 -60 27 0 4 9
6 20 3 11 -3 20 -2 20 3 0 11 -64 40 -87 40 -17 -1 -17 -1 0 -14z m-26 -83 c2
-6 -5 -17 -16 -23 -19 -10 -21 -8 -21 15 0 19 5 26 17 23 9 -2 18 -8 20 -15z"/>
<path d="M3594 4875 c11 -51 83 -188 121 -230 20 -23 30 -29 21 -15 -8 14 -31
66 -51 115 -20 50 -50 106 -67 125 l-30 35 6 -30z"/>
<path d="M2920 4977 c44 -11 43 -11 -56 -18 -55 -3 -116 -11 -135 -18 -45 -14
-112 -82 -107 -107 3 -16 11 -18 58 -15 56 3 75 10 53 18 -7 3 -13 13 -13 23
0 20 15 35 47 44 19 6 25 0 42 -39 15 -35 25 -45 43 -45 47 0 262 20 266 25 6
6 -27 56 -52 77 -41 35 -117 68 -154 67 l-37 -1 45 -11z"/>
<path d="M2375 4900 c4 -6 -6 -10 -22 -11 -28 -1 -28 -1 -3 -8 32 -9 11 -24
-27 -19 -19 2 -29 -2 -31 -12 -2 -12 13 -19 59 -29 53 -11 63 -10 79 4 9 8 17
28 18 44 0 24 -4 30 -30 35 -42 8 -50 8 -43 -4z"/>
<path d="M2653 7293 c0 -42 1 -44 7 -18 11 43 11 65 1 65 -5 0 -8 -21 -8 -47z"/>
<path d="M2450 6763 c-66 -14 -122 -44 -174 -95 -17 -15 -33 -28 -38 -28 -4 0
-8 -8 -8 -18 0 -10 -7 -39 -16 -64 -8 -26 -14 -61 -12 -80 3 -30 5 -25 26 39
12 39 28 78 35 85 7 7 28 34 46 60 19 26 41 50 50 52 35 11 153 26 161 21 5
-3 12 0 15 6 4 5 14 8 22 5 9 -4 13 -1 11 6 -7 20 -50 24 -118 11z"/>
<path d="M2415 6600 l-40 -7 53 -2 c29 0 52 3 52 9 0 11 -5 11 -65 0z"/>
<path d="M2430 6425 c0 -8 5 -15 10 -15 6 0 10 7 10 15 0 8 -4 15 -10 15 -5 0
-10 -7 -10 -15z"/>
<path d="M4328 5583 c7 -3 16 -2 19 1 4 3 -2 6 -13 5 -11 0 -14 -3 -6 -6z"/>
<path d="M4630 5510 c0 -5 5 -10 11 -10 5 0 7 5 4 10 -3 6 -8 10 -11 10 -2 0
-4 -4 -4 -10z"/>
<path d="M2806 5375 c5 -11 2 -13 -10 -9 -9 3 -28 3 -43 -1 -22 -5 -24 -8 -12
-17 11 -8 11 -9 -3 -4 -24 7 -53 -6 -53 -24 0 -8 -6 -14 -12 -12 -14 2 -15
-10 -3 -48 4 -14 8 -19 9 -11 1 11 5 11 20 -3 24 -22 124 -42 166 -33 11 2 25
0 32 -5 6 -5 27 -11 45 -13 18 -3 42 -6 53 -7 11 -2 26 -10 33 -18 9 -10 11
-10 7 -1 -6 10 -2 10 16 -2 43 -27 67 -30 74 -8 6 19 6 19 29 -2 12 -12 21
-25 19 -28 -3 -6 58 -39 72 -39 3 0 3 5 -1 12 -5 7 -1 9 13 6 20 -5 21 -3 24
50 1 15 4 21 6 15 3 -7 12 -13 20 -13 13 0 13 3 3 15 -7 8 -18 15 -25 15 -7 0
-22 15 -34 33 -17 26 -21 28 -21 12 0 -15 -3 -16 -9 -7 -4 8 -15 12 -24 10
-17 -3 -57 37 -57 59 0 7 -4 13 -10 13 -5 0 -10 -7 -10 -15 0 -8 -5 -15 -11
-15 -5 0 -7 -6 -4 -12 4 -7 -9 3 -28 23 l-35 36 2 -28 c0 -15 -3 -27 -9 -26
-5 1 -9 4 -9 7 1 3 -12 19 -28 35 -17 17 -27 24 -23 17 6 -11 3 -12 -13 -3
-11 6 -22 17 -26 26 -4 11 -13 14 -30 9 -15 -3 -38 1 -57 10 -40 20 -50 20
-43 1z m418 -257 c-3 -4 -9 -8 -15 -8 -5 0 -9 4 -9 8 0 5 7 9 15 9 8 0 12 -4
9 -9z"/>
<path d="M5520 5014 c0 -9 -3 -15 -6 -11 -12 11 -33 -20 -30 -45 2 -13 16 -46
32 -73 l29 -50 3 37 c3 36 -22 93 -37 84 -4 -3 -8 4 -8 16 -2 17 2 19 23 14
22 -6 25 -4 22 15 -4 27 -28 38 -28 13z"/>
<path d="M5428 4851 c-5 -23 25 -53 45 -45 26 10 20 31 -12 47 -27 13 -30 13
-33 -2z"/>
<path d="M5390 4754 c-6 -16 -9 -35 -6 -44 3 -8 14 -42 25 -74 26 -74 26 -102
2 -116 -37 -19 -39 -90 -2 -90 17 0 51 39 64 73 7 20 26 22 62 5 32 -14 45 0
45 48 0 39 -46 131 -73 146 -12 6 -24 14 -27 18 -3 3 -22 19 -42 34 l-38 28
-10 -28z"/>
<path d="M3936 4238 c-12 -74 -53 -108 -133 -109 -26 0 -57 -4 -68 -9 -17 -6
-14 -9 20 -16 22 -5 71 -9 108 -9 61 0 70 3 88 25 22 29 24 116 4 144 -11 14
-14 11 -19 -26z"/>
<path d="M3603 4249 c-48 -23 -67 -53 -29 -43 13 3 27 1 31 -5 8 -14 -32 -71
-51 -71 -15 0 -19 -12 -8 -23 4 -4 20 5 36 18 36 30 38 30 83 4 35 -21 53 -21
40 0 -3 6 -13 11 -21 11 -10 0 -14 8 -12 23 3 19 10 23 58 27 52 5 57 9 52 38
-4 17 -62 42 -99 42 -21 0 -57 -9 -80 -21z"/>
<path d="M3200 4210 c-42 -42 -14 -74 67 -75 34 -1 58 -6 63 -15 7 -11 11 -10
25 3 15 15 18 15 31 2 9 -8 21 -15 27 -15 8 0 8 3 2 8 -5 4 -10 12 -10 18 0
19 -58 61 -108 78 -61 21 -73 20 -97 -4z"/>
<path d="M5454 4029 c4 -78 11 -151 16 -163 7 -20 8 -19 15 9 4 17 11 35 15
40 3 6 7 19 8 30 3 30 7 49 14 60 4 6 3 17 -3 25 -15 25 -10 50 9 50 21 0 25
27 9 48 -9 12 -71 42 -85 42 -2 0 -2 -64 2 -141z"/>
<path d="M3436 4127 c3 -10 9 -15 12 -12 3 3 0 11 -7 18 -10 9 -11 8 -5 -6z"/>
<path d="M3286 4072 c-15 -8 -46 -17 -68 -19 -48 -7 -45 -27 4 -31 29 -2 44 3
70 27 38 34 36 44 -6 23z"/>
<path d="M3585 3705 c2 -11 0 -27 -6 -35 -10 -13 -10 -13 -6 1 3 9 1 22 -4 30
-7 11 -9 10 -9 -4 0 -10 -4 -16 -9 -12 -6 3 -14 -2 -19 -11 -7 -12 -14 -14
-27 -7 -9 5 -16 14 -15 19 3 15 -32 31 -37 17 -3 -7 -14 -13 -26 -13 -32 0
-125 -40 -182 -79 -27 -19 -59 -35 -70 -36 -11 -1 -25 -3 -30 -4 -6 0 -16 -14
-22 -31 -11 -29 -10 -30 22 -36 49 -9 126 12 146 39 7 10 61 23 156 38 38 5
82 12 98 15 17 3 55 7 85 9 30 2 82 9 115 15 88 16 129 19 140 11 18 -13 40
-6 38 13 -1 16 3 15 23 -7 26 -28 34 -28 119 -8 22 5 56 15 75 22 19 6 41 13
47 15 24 6 1 34 -36 43 -20 5 -145 8 -279 7 -219 -1 -245 -3 -256 -18 -12 -17
-14 -16 -25 5 -9 18 -10 19 -6 2z"/>
<path d="M3600 3380 c0 -5 9 -10 20 -10 11 0 20 5 20 10 0 6 -9 10 -20 10 -11
0 -20 -4 -20 -10z"/>
<path d="M5486 3238 c18 -59 30 -76 112 -157 71 -70 91 -96 106 -141 11 -30
33 -82 49 -115 46 -91 42 -122 -48 -391 -43 -126 -100 -292 -127 -369 -73
-203 -161 -473 -198 -605 -45 -163 -65 -187 -113 -137 -121 125 -201 221 -293
354 -105 151 -197 263 -207 253 -17 -18 -188 -288 -252 -400 -97 -168 -389
-756 -472 -950 -54 -127 -223 -562 -223 -575 0 -3 941 -5 2090 -5 l2090 0 0
935 0 935 -24 15 c-13 9 -75 38 -137 64 -63 27 -150 67 -194 89 -61 32 -125
52 -270 87 -202 48 -451 133 -575 195 -41 21 -145 88 -231 148 -87 61 -189
127 -228 147 -73 36 -365 138 -434 150 -47 9 -68 35 -135 170 -77 155 -166
266 -243 305 -48 25 -52 25 -43 -2z"/>
<path d="M5176 2959 c-17 -15 -33 -26 -37 -23 -5 2 -12 -4 -18 -14 -5 -10 -33
-29 -63 -42 -29 -14 -55 -28 -58 -32 -11 -15 -82 -58 -94 -58 -8 0 -24 -11
-37 -25 -13 -13 -30 -25 -37 -25 -7 0 -15 -7 -19 -16 -5 -13 -7 -13 -14 -2 -7
10 -9 9 -9 -4 0 -18 -103 -128 -119 -128 -18 0 -73 -60 -68 -75 4 -8 2 -17 -4
-20 -5 -4 -7 -10 -4 -15 7 -12 -40 -24 -54 -15 -6 3 -11 1 -11 -5 0 -7 9 -14
20 -17 11 -3 20 -10 20 -15 0 -5 -3 -7 -7 -5 -13 8 -55 -12 -48 -23 8 -13 -31
-50 -54 -50 -10 0 -24 -7 -31 -15 -7 -9 -15 -13 -18 -11 -6 7 -32 -20 -32 -33
0 -11 26 -16 73 -12 33 3 36 -15 5 -25 -22 -7 -22 -7 -3 -15 17 -6 17 -8 3 -8
-10 -1 -18 -5 -18 -11 0 -5 8 -10 18 -10 15 -1 16 -2 1 -13 -20 -15 -23 -68
-3 -60 7 2 10 11 8 18 -7 16 9 27 30 19 14 -5 14 -8 -1 -30 -8 -13 -13 -24 -9
-24 3 0 13 11 21 24 12 19 14 30 6 44 -6 11 -7 22 -4 26 4 4 12 -3 18 -14 10
-19 13 -20 25 -5 11 13 10 15 -5 9 -15 -6 -16 -5 -4 15 8 12 15 17 17 12 2 -6
10 -7 18 -4 12 4 12 7 -3 18 -16 12 -14 12 11 8 25 -5 28 -3 23 11 -4 9 -3 15
1 12 4 -2 12 -2 17 2 14 10 101 106 155 171 25 29 50 59 56 65 5 6 30 38 54
71 24 33 65 83 90 110 37 39 162 193 223 273 19 24 2 19 -27 -9z"/>
<path d="M3090 2769 c0 -26 14 -70 40 -126 37 -77 90 -245 110 -344 4 -20 17
-50 28 -67 12 -16 22 -38 22 -47 0 -9 4 -24 9 -33 5 -9 11 -71 15 -137 9 -168
44 -329 83 -386 17 -25 38 -51 46 -58 13 -10 15 -9 10 7 -6 23 32 223 47 253
15 27 1 70 -61 185 -46 87 -92 217 -91 259 1 11 8 25 18 30 45 27 57 42 49 61
-5 10 -9 23 -9 27 -1 4 -7 12 -15 17 -8 4 -16 24 -17 44 -2 20 -18 58 -39 88
-19 29 -35 57 -35 62 0 21 -84 118 -139 160 -33 25 -62 46 -65 46 -3 0 -6 -18
-6 -41z m320 -419 c0 -5 -2 -10 -4 -10 -3 0 -8 5 -11 10 -3 6 -1 10 4 10 6 0
11 -4 11 -10z"/>
<path d="M4536 2504 c-9 -25 -2 -26 17 -4 13 16 14 20 3 20 -8 0 -17 -7 -20
-16z"/>
<path d="M2530 2404 c-329 -71 -340 -74 -555 -155 -174 -66 -284 -115 -378
-166 -42 -24 -85 -43 -96 -43 -37 0 -116 -30 -160 -61 -81 -56 -161 -141 -230
-245 -57 -84 -69 -109 -75 -156 -5 -41 -16 -67 -37 -94 -26 -33 -29 -44 -29
-113 0 -94 -12 -119 -74 -152 -26 -15 -52 -33 -57 -40 -12 -19 -11 -82 1 -113
7 -21 -1 -52 -49 -177 -38 -98 -68 -160 -85 -175 -22 -21 -25 -30 -20 -67 4
-32 -3 -70 -30 -155 -20 -63 -43 -123 -51 -135 -8 -12 -15 -35 -15 -52 0 -28
-53 -233 -61 -238 -2 -1 -17 -9 -34 -17 -16 -9 -31 -23 -33 -33 -3 -16 74 -17
1301 -17 l1304 0 7 158 c6 149 30 452 40 517 3 17 19 169 37 340 25 251 30
328 23 405 -4 52 -6 172 -5 267 l3 172 -78 85 c-43 48 -86 86 -95 86 -21 0
-95 54 -140 103 l-36 39 -40 -25 c-22 -14 -64 -58 -93 -97 -28 -40 -80 -104
-114 -144 -34 -39 -86 -106 -115 -149 -49 -73 -55 -78 -84 -75 -24 2 -34 10
-41 31 -9 23 -5 35 31 85 78 111 142 220 153 262 6 24 22 94 35 157 13 64 33
133 45 154 29 57 34 55 -70 33z"/>
<path d="M4330 2256 c0 -2 6 -9 14 -15 10 -9 15 -8 20 4 4 10 -1 15 -14 15
-11 0 -20 -2 -20 -4z"/>
<path d="M4410 2120 c0 -5 5 -10 10 -10 6 0 10 5 10 10 0 6 -4 10 -10 10 -5 0
-10 -4 -10 -10z"/>
</g>
</svg>
